<!-- icon666.com - MILLIONS vector ICONS FREE --><svg viewBox="0 0 64 64" xmlns="http://www.w3.org/2000/svg"><g id="Layer_30" data-name="Layer 30"><path d="m39 56v-8h-14v8z" fill="#d1e3f0"></path><path d="m25 48v8h12v-8z" fill="#ebf2f7"></path><rect fill="#d1e3f0" height="46" rx="2" width="60" x="2" y="2"></rect><path d="m58 42v-40h-54a2 2 0 0 0 -2 2v38z" fill="#ebf2f7"></path><path d="m6 6h52v36h-52z" fill="#3f5c6c"></path><rect fill="#3f5c6c" height="6" rx="3" width="32" x="16" y="56"></rect><path d="m45 56h-26a2.987 2.987 0 0 0 -2.584 1.5 2.987 2.987 0 0 0 2.584 1.5h26a2.987 2.987 0 0 0 2.584-1.5 2.987 2.987 0 0 0 -2.584-1.5z" fill="#547580"></path><path d="m2 46a2 2 0 0 0 2 2h56a2 2 0 0 0 2-2v-4h-60z" fill="#97bfe4"></path><path d="m58 43v-1h-56v3h54a2 2 0 0 0 2-2z" fill="#b0d3f0"></path><path d="m44 30-2-6 5-8 5 8-2 6z" fill="#ebf2f7"></path><path d="m43 30h8v12h-8z" fill="#f45347"></path><path d="m45 12h4v4h-4z" fill="#ebf2f7"></path><path d="m43 30h8v4h-8z" fill="#f45347"></path><path d="m43 30h4v12h-4z" fill="#ff5364"></path><path d="m43 30h4v4h-4z" fill="#ff5364"></path><path d="m31 21a7.953 7.953 0 0 0 -2 .263v-5.263a1 1 0 0 0 -1-1h-18a1 1 0 0 0 -1 1v16a1 1 0 0 0 1 1h14.082a8 8 0 1 0 6.918-12zm-20 10v-14h16v5.082a7.937 7.937 0 0 0 -3.737 8.918zm21 3.91v-1.91h-2v1.91a6.008 6.008 0 0 1 -4.91-4.91h1.91v-2h-1.91a6.008 6.008 0 0 1 4.91-4.91v1.91h2v-1.91a6.008 6.008 0 0 1 4.91 4.91h-1.91v2h1.91a6.008 6.008 0 0 1 -4.91 4.91z"></path><path d="m60 1h-56a3 3 0 0 0 -3 3v42a3 3 0 0 0 3 3h20v6h-5a4 4 0 0 0 0 8h26a4 4 0 0 0 0-8h-5v-6h20a3 3 0 0 0 3-3v-42a3 3 0 0 0 -3-3zm-56 2h56a1 1 0 0 1 1 1v37h-2v-35a1 1 0 0 0 -1-1h-52a1 1 0 0 0 -1 1v35h-2v-37a1 1 0 0 1 1-1zm40 28h6v2h-6zm5.28-2h-4.56l-1.62-4.869 2.9-4.644v4.513h-1v2h4v-2h-1v-4.513l2.9 4.644zm-1.28-16v2h-2v-2zm-3-2a1 1 0 0 0 -1 1v1h-5v2h5v1a1 1 0 0 0 1 1h.2l-4.044 6.47a1 1 0 0 0 -.1.846l1.585 4.757a1 1 0 0 0 -.641.927v11h-35v-34h39v4zm-1 24h6v6h-6zm7.363-5.927 1.585-4.757a1 1 0 0 0 -.1-.846l-4.048-6.47h.2a1 1 0 0 0 1-1v-1h5v-2h-5v-1a1 1 0 0 0 -1-1h-1v-4h9v34h-5v-11a1 1 0 0 0 -.637-.927zm-4.363 29.927a2 2 0 0 1 -2 2h-26a2 2 0 0 1 0-4h26a2 2 0 0 1 2 2zm-9-4h-12v-6h12zm22-8h-56a1 1 0 0 1 -1-1v-3h58v3a1 1 0 0 1 -1 1z"></path></g></svg>